<svg width="24" height="24" viewBox="0 0 24 24" fill="none" xmlns="http://www.w3.org/2000/svg">
<path d="M12 10.9996C12.8284 10.9996 13.5 10.3281 13.5 9.49963C13.5 8.67121 12.8284 7.99963 12 7.99963C11.1716 7.99963 10.5 8.67121 10.5 9.49963C10.5 10.3281 11.1716 10.9996 12 10.9996Z" fill="#AE78A9"/>
<path d="M12 1.99963C9.89206 1.99953 7.86926 2.83139 6.37124 4.31442C4.87323 5.79746 4.02108 7.8118 4 9.91963C4 15.3996 11.05 21.4996 11.35 21.7596C11.5311 21.9146 11.7616 21.9997 12 21.9997C12.2384 21.9997 12.4689 21.9146 12.65 21.7596C13 21.4996 20 15.3996 20 9.91963C19.9789 7.8118 19.1268 5.79746 17.6288 4.31442C16.1307 2.83139 14.1079 1.99953 12 1.99963ZM12 12.9996C11.3078 12.9996 10.6311 12.7944 10.0555 12.4098C9.47993 12.0252 9.03133 11.4786 8.76642 10.839C8.50151 10.1995 8.4322 9.49575 8.56725 8.81682C8.7023 8.13788 9.03564 7.51424 9.52513 7.02476C10.0146 6.53528 10.6382 6.20193 11.3172 6.06689C11.9961 5.93184 12.6999 6.00115 13.3394 6.26606C13.9789 6.53096 14.5256 6.97957 14.9101 7.55514C15.2947 8.13071 15.5 8.8074 15.5 9.49963C15.5 10.4279 15.1313 11.3181 14.4749 11.9745C13.8185 12.6309 12.9283 12.9996 12 12.9996Z" fill="url(#paint0_linear_27_233)"/>
<defs>
<linearGradient id="paint0_linear_27_233" x1="12" y1="1.99963" x2="12" y2="21.9997" gradientUnits="userSpaceOnUse">
<stop stop-color="#BB59D3"/>
<stop offset="1" stop-color="#8B31D1"/>
</linearGradient>
</defs>
</svg>
