<svg width="141" height="42" viewBox="0 0 141 42" fill="none" xmlns="http://www.w3.org/2000/svg">
<path d="M7.992 7.73604V34.76H20.952L20.136 41H0.119995V7.73604H7.992Z" fill="#141414"/>
<path d="M45.5906 27.752C45.5906 28.808 45.5426 29.72 45.4466 30.488H29.6546C29.9106 32.632 30.5186 34.136 31.4786 35C32.4386 35.864 33.7666 36.296 35.4626 36.296C36.4866 36.296 37.4786 36.12 38.4386 35.768C39.3986 35.384 40.4386 34.808 41.5586 34.04L44.6786 38.264C41.7026 40.632 38.3906 41.816 34.7426 41.816C30.6146 41.816 27.4466 40.6 25.2386 38.168C23.0306 35.736 21.9266 32.472 21.9266 28.376C21.9266 25.784 22.3906 23.464 23.3186 21.416C24.2466 19.336 25.6066 17.704 27.3986 16.52C29.1906 15.304 31.3346 14.696 33.8306 14.696C37.5106 14.696 40.3906 15.848 42.4706 18.152C44.5506 20.456 45.5906 23.656 45.5906 27.752ZM38.1506 25.592C38.0866 21.688 36.7106 19.736 34.0226 19.736C32.7106 19.736 31.6866 20.216 30.9506 21.176C30.2466 22.136 29.8146 23.72 29.6546 25.928H38.1506V25.592Z" fill="#141414"/>
<path d="M65.835 39.8C64.907 40.44 63.819 40.936 62.571 41.288C61.355 41.64 60.139 41.816 58.923 41.816C53.355 41.784 50.571 38.712 50.571 32.6V20.792H46.971V15.512H50.571V9.99204L58.155 9.12804V15.512H64.011L63.195 20.792H58.155V32.504C58.155 33.688 58.347 34.536 58.731 35.048C59.115 35.56 59.723 35.816 60.555 35.816C61.419 35.816 62.331 35.544 63.291 35L65.835 39.8Z" fill="#141414"/>
<path d="M75.9506 15.512V41H68.3666V15.512H75.9506ZM75.6146 0.920044L78.5906 6.58405L67.2626 11.144L65.1506 7.25605L75.6146 0.920044Z" fill="#141414"/>
<path d="M92.9535 14.696C94.7135 14.696 96.2975 14.952 97.7055 15.464C99.1135 15.976 100.441 16.76 101.689 17.816L98.4255 22.328C96.8255 21.112 95.2095 20.504 93.5775 20.504C91.8815 20.504 90.6015 21.128 89.7375 22.376C88.8735 23.624 88.4415 25.64 88.4415 28.424C88.4415 31.112 88.8735 33.016 89.7375 34.136C90.6015 35.256 91.8495 35.816 93.4815 35.816C94.3455 35.816 95.1295 35.688 95.8335 35.432C96.5375 35.144 97.3855 34.696 98.3775 34.088L101.689 38.792C99.1615 40.808 96.2975 41.816 93.0975 41.816C90.5055 41.816 88.2655 41.272 86.3775 40.184C84.4895 39.064 83.0335 37.512 82.0095 35.528C80.9855 33.512 80.4735 31.16 80.4735 28.472C80.4735 25.784 80.9855 23.4 82.0095 21.32C83.0335 19.24 84.4895 17.624 86.3775 16.472C88.2655 15.288 90.4575 14.696 92.9535 14.696Z" fill="#141414"/>
<path d="M112.466 15.512V41H104.882V15.512H112.466ZM108.626 2.07204C109.938 2.07204 111.01 2.48804 111.842 3.32004C112.706 4.12004 113.138 5.14404 113.138 6.39205C113.138 7.64004 112.706 8.68004 111.842 9.51204C111.01 10.312 109.938 10.712 108.626 10.712C107.314 10.712 106.242 10.312 105.41 9.51204C104.578 8.68004 104.162 7.64004 104.162 6.39205C104.162 5.14404 104.578 4.12004 105.41 3.32004C106.242 2.48804 107.314 2.07204 108.626 2.07204Z" fill="#141414"/>
<path d="M138.685 33.608C138.685 34.568 138.813 35.272 139.069 35.72C139.357 36.168 139.805 36.504 140.413 36.728L138.829 41.672C137.261 41.544 135.981 41.208 134.989 40.664C133.997 40.088 133.229 39.192 132.685 37.976C131.021 40.536 128.461 41.816 125.005 41.816C122.477 41.816 120.461 41.08 118.957 39.608C117.453 38.136 116.701 36.216 116.701 33.848C116.701 31.064 117.725 28.936 119.773 27.464C121.821 25.992 124.781 25.256 128.653 25.256H131.245V24.152C131.245 22.648 130.925 21.624 130.285 21.08C129.645 20.504 128.525 20.216 126.925 20.216C126.093 20.216 125.085 20.344 123.901 20.6C122.717 20.824 121.501 21.144 120.253 21.56L118.525 16.568C120.125 15.96 121.757 15.496 123.421 15.176C125.117 14.856 126.685 14.696 128.125 14.696C131.773 14.696 134.445 15.448 136.141 16.952C137.837 18.456 138.685 20.712 138.685 23.72V33.608ZM127.213 36.392C128.941 36.392 130.285 35.576 131.245 33.944V29.432H129.373C127.645 29.432 126.349 29.736 125.485 30.344C124.653 30.952 124.237 31.896 124.237 33.176C124.237 34.2 124.493 35 125.005 35.576C125.549 36.12 126.285 36.392 127.213 36.392Z" fill="#141414"/>
</svg>
